<mxfile host="app.diagrams.net" modified="2022-12-20T04:17:57.107Z" agent="5.0 (Windows NT 10.0; Win64; x64) AppleWebKit/537.36 (KHTML, like Gecko) Chrome/108.0.0.0 Safari/537.36 Edg/108.0.1462.54" version="20.6.0" etag="nNoEhP7zM0nJA03vqMDc" type="github">
  <diagram id="JUidYBW1GJWZsKxiZpDq" name="第 1 页">
    <mxGraphModel dx="996" dy="640" grid="1" gridSize="10" guides="1" tooltips="1" connect="1" arrows="1" fold="1" page="1" pageScale="1" pageWidth="827" pageHeight="1169" math="0" shadow="0">
      <root>
        <mxCell id="0" />
        <mxCell id="1" parent="0" />
        <mxCell id="aI58uv4aWLs2A05BeFcX-9" value="" style="edgeStyle=orthogonalEdgeStyle;rounded=0;orthogonalLoop=1;jettySize=auto;html=1;" edge="1" parent="1" source="aI58uv4aWLs2A05BeFcX-1" target="aI58uv4aWLs2A05BeFcX-2">
          <mxGeometry relative="1" as="geometry" />
        </mxCell>
        <mxCell id="aI58uv4aWLs2A05BeFcX-1" value="信源" style="rounded=0;whiteSpace=wrap;html=1;" vertex="1" parent="1">
          <mxGeometry x="50" y="190" width="60" height="120" as="geometry" />
        </mxCell>
        <mxCell id="aI58uv4aWLs2A05BeFcX-10" value="" style="edgeStyle=orthogonalEdgeStyle;rounded=0;orthogonalLoop=1;jettySize=auto;html=1;" edge="1" parent="1" source="aI58uv4aWLs2A05BeFcX-2" target="aI58uv4aWLs2A05BeFcX-4">
          <mxGeometry relative="1" as="geometry" />
        </mxCell>
        <mxCell id="aI58uv4aWLs2A05BeFcX-2" value="编码器" style="rounded=0;whiteSpace=wrap;html=1;" vertex="1" parent="1">
          <mxGeometry x="150" y="190" width="60" height="120" as="geometry" />
        </mxCell>
        <mxCell id="aI58uv4aWLs2A05BeFcX-13" value="" style="edgeStyle=orthogonalEdgeStyle;rounded=0;orthogonalLoop=1;jettySize=auto;html=1;" edge="1" parent="1" source="aI58uv4aWLs2A05BeFcX-3" target="aI58uv4aWLs2A05BeFcX-6">
          <mxGeometry relative="1" as="geometry" />
        </mxCell>
        <mxCell id="aI58uv4aWLs2A05BeFcX-3" value="解调器" style="rounded=0;whiteSpace=wrap;html=1;" vertex="1" parent="1">
          <mxGeometry x="460" y="190" width="60" height="120" as="geometry" />
        </mxCell>
        <mxCell id="aI58uv4aWLs2A05BeFcX-11" value="" style="edgeStyle=orthogonalEdgeStyle;rounded=0;orthogonalLoop=1;jettySize=auto;html=1;" edge="1" parent="1" source="aI58uv4aWLs2A05BeFcX-4" target="aI58uv4aWLs2A05BeFcX-5">
          <mxGeometry relative="1" as="geometry" />
        </mxCell>
        <mxCell id="aI58uv4aWLs2A05BeFcX-4" value="调制器" style="rounded=0;whiteSpace=wrap;html=1;" vertex="1" parent="1">
          <mxGeometry x="250" y="190" width="60" height="120" as="geometry" />
        </mxCell>
        <mxCell id="aI58uv4aWLs2A05BeFcX-12" value="" style="edgeStyle=orthogonalEdgeStyle;rounded=0;orthogonalLoop=1;jettySize=auto;html=1;" edge="1" parent="1" source="aI58uv4aWLs2A05BeFcX-5" target="aI58uv4aWLs2A05BeFcX-3">
          <mxGeometry relative="1" as="geometry" />
        </mxCell>
        <mxCell id="aI58uv4aWLs2A05BeFcX-5" value="信道" style="rounded=0;whiteSpace=wrap;html=1;" vertex="1" parent="1">
          <mxGeometry x="354" y="190" width="60" height="120" as="geometry" />
        </mxCell>
        <mxCell id="aI58uv4aWLs2A05BeFcX-16" value="" style="edgeStyle=orthogonalEdgeStyle;rounded=0;orthogonalLoop=1;jettySize=auto;html=1;" edge="1" parent="1" source="aI58uv4aWLs2A05BeFcX-6" target="aI58uv4aWLs2A05BeFcX-8">
          <mxGeometry relative="1" as="geometry" />
        </mxCell>
        <mxCell id="aI58uv4aWLs2A05BeFcX-6" value="译码器" style="rounded=0;whiteSpace=wrap;html=1;" vertex="1" parent="1">
          <mxGeometry x="570" y="190" width="60" height="120" as="geometry" />
        </mxCell>
        <mxCell id="aI58uv4aWLs2A05BeFcX-15" value="" style="edgeStyle=orthogonalEdgeStyle;rounded=0;orthogonalLoop=1;jettySize=auto;html=1;" edge="1" parent="1" source="aI58uv4aWLs2A05BeFcX-7" target="aI58uv4aWLs2A05BeFcX-5">
          <mxGeometry relative="1" as="geometry" />
        </mxCell>
        <mxCell id="aI58uv4aWLs2A05BeFcX-7" value="噪声" style="rounded=0;whiteSpace=wrap;html=1;" vertex="1" parent="1">
          <mxGeometry x="354" y="340" width="60" height="50" as="geometry" />
        </mxCell>
        <mxCell id="aI58uv4aWLs2A05BeFcX-8" value="信宿" style="rounded=0;whiteSpace=wrap;html=1;" vertex="1" parent="1">
          <mxGeometry x="679" y="190" width="60" height="120" as="geometry" />
        </mxCell>
      </root>
    </mxGraphModel>
  </diagram>
</mxfile>
